name Walk9.mot
datacolumns 19
datarows 10
range 3.17000000 3.17900000
endheader

                time	   L_ground_force_vx	   L_ground_force_vy	   L_ground_force_vz	   L_ground_force_px	   L_ground_force_py	   L_ground_force_pz	   R_ground_force_vx	   R_ground_force_vy	   R_ground_force_vz	   R_ground_force_px	   R_ground_force_py	   R_ground_force_pz	   L_ground_torque_x	   L_ground_torque_y	   L_ground_torque_z	   R_ground_torque_x	   R_ground_torque_y	   R_ground_torque_z	
          3.17000000	         -7.53575501	         64.23134117	         -1.66963058	          0.00033333	          0.00000000	          0.00092115	         -0.00000000	          0.00000000	          0.00000000	          0.00000000	          0.00000000	          0.00000000	          0.00000000	          0.18080304	          0.00000000	          0.00000000	          0.00000000	          0.00000000	
          3.17100000	         -8.53150506	         70.35108096	         -1.86906515	         -0.01176161	          0.00000000	         -0.00099409	         -0.00000000	          0.00000000	          0.00000000	          0.00000000	          0.00000000	          0.00000000	          0.00000000	          0.19207570	          0.00000000	          0.00000000	          0.00000000	          0.00000000	
          3.17200000	         -9.54761424	         76.69112932	         -2.07679220	         -0.02382229	          0.00000000	         -0.00290282	         -0.00000000	          0.00000000	          0.00000000	          0.00000000	          0.00000000	          0.00000000	          0.00000000	          0.20368825	          0.00000000	          0.00000000	          0.00000000	          0.00000000	
          3.17300000	        -10.58256445	         83.24700586	         -2.29277811	         -0.03581932	          0.00000000	         -0.00480039	         -0.00000000	          0.00000000	          0.00000000	          0.00000000	          0.00000000	          0.00000000	          0.00000000	          0.21562248	          0.00000000	          0.00000000	          0.00000000	          0.00000000	
          3.17400000	        -11.63468846	         90.01303167	         -2.51695675	         -0.04772296	          0.00000000	         -0.00668210	         -0.00000000	          0.00000000	          0.00000000	          0.00000000	          0.00000000	          0.00000000	          0.00000000	          0.22785703	          0.00000000	          0.00000000	          0.00000000	          0.00000000	
          3.17500000	        -12.70215374	         96.98222703	         -2.74922618	         -0.05950293	          0.00000000	         -0.00854318	         -0.00000000	          0.00000000	          0.00000000	          0.00000000	          0.00000000	          0.00000000	          0.00000000	          0.24036715	          0.00000000	          0.00000000	          0.00000000	          0.00000000	
          3.17600000	        -13.78295547	        104.14622058	         -2.98944573	         -0.07112847	          0.00000000	         -0.01037882	         -0.00000000	          0.00000000	          0.00000000	          0.00000000	          0.00000000	          0.00000000	          0.00000000	          0.25312450	          0.00000000	          0.00000000	          0.00000000	          0.00000000	
          3.17700000	        -14.87494322	        111.49521027	         -3.23743496	         -0.08256928	          0.00000000	         -0.01218427	         -0.00000000	          0.00000000	          0.00000000	          0.00000000	          0.00000000	          0.00000000	          0.00000000	          0.26609689	          0.00000000	          0.00000000	          0.00000000	          0.00000000	
          3.17800000	        -15.97589070	        119.01799776	         -3.49297346	         -0.09379707	          0.00000000	         -0.01395517	         -0.00000000	          0.00000000	          0.00000000	          0.00000000	          0.00000000	          0.00000000	          0.00000000	          0.27924795	          0.00000000	          0.00000000	          0.00000000	          0.00000000	
          3.17900000	        -17.08358644	        126.70207295	         -3.75579786	         -0.10478645	          0.00000000	         -0.01568763	         -0.00000000	          0.00000000	          0.00000000	         -0.00000000	          0.00000000	         -0.00000000	          0.00000000	          0.29253696	          0.00000000	          0.00000000	          0.00000000	          0.00000000	
